<svg xmlns="http://www.w3.org/2000/svg" viewBox="0 0 300 200" preserveAspectRatio="xMidYMid meet" aria-hidden="true" focusable="false" style="width:100%;height:auto;display:block">
<style>
  .c-profond { fill: var(--color-profond, #001718); }
  .c-encre { fill: var(--color-encre, #00393A); }
  .c-pivot { fill: var(--color-pivot, #336667); }
  .c-clair { fill: var(--color-clair, #99CCCD); }
  .c-voile { fill: var(--color-voile, #E1F4F4); }
  .c-papier { fill: var(--color-papier, #F7F9FA); }
  .c-calcaire { fill: var(--color-calcaire, #EDF0F2); }
  .c-filet-1 { fill: var(--color-filet-1, #00393A38); }
  .c-filet-2 { fill: var(--color-filet-2, #00393A29); }
  .c-filet-3 { fill: var(--color-filet-3, #00393A1F); }
  .s-filet-1 { stroke: var(--color-filet-1, #00393A38); }
  .s-filet-2 { stroke: var(--color-filet-2, #00393A29); }
  .s-filet-3 { stroke: var(--color-filet-3, #00393A1F); }
  .s-encre { stroke: var(--color-encre, #00393A); }
  .s-clair { stroke: var(--color-clair, #99CCCD); }
  .t-sans { font-family: "Archivo Variable", Archivo, "Helvetica Neue", Arial, sans-serif; }
  .t-mono { font-family: "IBM Plex Mono", ui-monospace, monospace; }
</style>
  <rect x="0.00" y="0.00" width="300.00" height="200.00" class="c-papier" fill="#F7F9FA"/>
  <text x="14.00" y="22.00" class="t-mono c-pivot" fill="#336667" font-family='"IBM Plex Mono", ui-monospace, monospace' font-size="9" font-weight="500" letter-spacing="1.26">DEUX FLUX CONTRAIRES</text>
  <rect x="96.00" y="40.00" width="96.00" height="124.00" class="c-papier" fill="#F7F9FA"/>
  <path d="M 96.00 40.00 L 192.00 40.00 L 192.00 164.00 L 96.00 164.00 L 96.00 40.00" fill="none" class="s-encre" stroke="#00393A" stroke-width="1.4"/>
  <path d="M 96.00 84.00 L 192.00 84.00" fill="none" class="s-encre" stroke="#00393A" stroke-width="1.0"/>
  <path d="M 96.00 112.00 L 192.00 112.00" fill="none" class="s-encre" stroke="#00393A" stroke-width="1.0"/>
  <path d="M 96.00 140.00 L 192.00 140.00" fill="none" class="s-encre" stroke="#00393A" stroke-width="1.0"/>
  <rect x="112.00" y="48.00" width="34.00" height="18.00" class="c-calcaire s-filet-1" fill="#EDF0F2" stroke="#00393A38" stroke-width="1"/>
  <text x="129.00" y="79.00" class="t-mono c-pivot" fill="#336667" font-family='"IBM Plex Mono", ui-monospace, monospace' font-size="9" font-weight="500" letter-spacing="1.26" text-anchor="middle">5 kVA</text>
  <rect x="152.00" y="48.00" width="34.00" height="18.00" class="c-calcaire s-filet-1" fill="#EDF0F2" stroke="#00393A38" stroke-width="1"/>
  <text x="169.00" y="79.00" class="t-mono c-pivot" fill="#336667" font-family='"IBM Plex Mono", ui-monospace, monospace' font-size="9" font-weight="500" letter-spacing="1.26" text-anchor="middle">3 kVA</text>
  <rect x="24.00" y="150.00" width="60.00" height="30.00" class="c-calcaire s-filet-1" fill="#EDF0F2" stroke="#00393A38" stroke-width="1"/>
  <text x="54.00" y="168.00" class="t-mono c-pivot" fill="#336667" font-family='"IBM Plex Mono", ui-monospace, monospace' font-size="9" font-weight="500" letter-spacing="1.26" text-anchor="middle">TGBT</text>
  <path d="M 84.00 158.00 L 102.00 158.00" fill="none" class="s-encre" stroke="#00393A" stroke-width="1.2"/>
  <path d="M 84.00 166.00 L 108.00 166.00" fill="none" class="s-encre" stroke="#00393A" stroke-width="1.2"/>
  <path d="M 102.00 158.00 L 102.00 62.00" fill="none" class="s-encre" stroke="#00393A" stroke-width="1.2"/>
  <path d="M 108.00 166.00 L 108.00 68.00" fill="none" class="s-encre" stroke="#00393A" stroke-width="1.2"/>
  <path d="M 102.00 60.00 L 98.50 67.00 L 105.50 67.00 Z" class="c-encre" fill="#00393A"/>
  <path d="M 108.00 66.00 L 104.50 73.00 L 111.50 73.00 Z" class="c-encre" fill="#00393A"/>
  <path d="M 168.00 82.00 L 168.00 152.00" fill="none" class="s-encre" stroke="#00393A" stroke-width="1.0"/>
  <circle cx="168.00" cy="98.00" r="2.50" class="c-papier s-encre" fill="#F7F9FA" stroke="#00393A" stroke-width="1.1"/>
  <circle cx="168.00" cy="126.00" r="2.50" class="c-papier s-encre" fill="#F7F9FA" stroke="#00393A" stroke-width="1.1"/>
  <circle cx="168.00" cy="152.00" r="2.50" class="c-papier s-encre" fill="#F7F9FA" stroke="#00393A" stroke-width="1.1"/>
  <path d="M 144.00 26.00 L 140.00 34.00 L 148.00 34.00 Z" class="c-encre" fill="#00393A"/>
  <path d="M 144.00 32.00 L 144.00 40.00" fill="none" class="s-encre" stroke="#00393A" stroke-width="1.6"/>
  <path d="M 144.00 36.00 L 240.00 36.00" fill="none" class="s-encre" stroke="#00393A" stroke-width="1.0"/>
  <path d="M 240.00 36.00 L 240.00 166.00" fill="none" class="s-encre" stroke="#00393A" stroke-width="1.0"/>
  <path d="M 240.00 170.00 L 236.50 163.00 L 243.50 163.00 Z" class="c-encre" fill="#00393A"/>
  <path d="M 232.00 174.00 L 248.00 174.00" fill="none" class="s-encre" stroke="#00393A" stroke-width="1.3"/>
  <path d="M 235.00 178.00 L 245.00 178.00" fill="none" class="s-encre" stroke="#00393A" stroke-width="1.1"/>
  <path d="M 238.00 182.00 L 242.00 182.00" fill="none" class="s-encre" stroke="#00393A" stroke-width="1.0"/>
  <path d="M 240.00 184.00 L 240.00 188.00" fill="none" class="s-encre" stroke="#00393A" stroke-width="1.0"/>
  <path d="M 240.00 188.00 L 54.00 188.00" fill="none" class="s-encre" stroke="#00393A" stroke-width="1.0"/>
  <path d="M 54.00 188.00 L 54.00 181.00" fill="none" class="s-encre" stroke="#00393A" stroke-width="1.0"/>
</svg>
