<svg xmlns="http://www.w3.org/2000/svg" viewBox="0 0 300 200" preserveAspectRatio="xMidYMid meet" aria-hidden="true" focusable="false" style="width:100%;height:auto;display:block">
<style>
  .c-profond { fill: var(--color-profond, #001718); }
  .c-encre { fill: var(--color-encre, #00393A); }
  .c-pivot { fill: var(--color-pivot, #336667); }
  .c-clair { fill: var(--color-clair, #99CCCD); }
  .c-voile { fill: var(--color-voile, #E1F4F4); }
  .c-papier { fill: var(--color-papier, #F7F9FA); }
  .c-calcaire { fill: var(--color-calcaire, #EDF0F2); }
  .c-filet-1 { fill: var(--color-filet-1, #00393A38); }
  .c-filet-2 { fill: var(--color-filet-2, #00393A29); }
  .c-filet-3 { fill: var(--color-filet-3, #00393A1F); }
  .s-filet-1 { stroke: var(--color-filet-1, #00393A38); }
  .s-filet-2 { stroke: var(--color-filet-2, #00393A29); }
  .s-filet-3 { stroke: var(--color-filet-3, #00393A1F); }
  .s-encre { stroke: var(--color-encre, #00393A); }
  .s-clair { stroke: var(--color-clair, #99CCCD); }
  .t-sans { font-family: "Archivo Variable", Archivo, "Helvetica Neue", Arial, sans-serif; }
  .t-mono { font-family: "IBM Plex Mono", ui-monospace, monospace; }
</style>
  <rect x="0.00" y="0.00" width="300.00" height="200.00" class="c-papier" fill="#F7F9FA"/>
  <text x="14.00" y="22.00" class="t-mono c-pivot" fill="#336667" font-family='"IBM Plex Mono", ui-monospace, monospace' font-size="9" font-weight="500" letter-spacing="1.26">TROIS RÉGIMES D’AIR</text>
  <rect x="228.00" y="28.00" width="6.00" height="137.00" class="c-calcaire s-filet-1" fill="#EDF0F2" stroke="#00393A38" stroke-width="1"/>
  <rect x="14.00" y="32.00" width="42.00" height="20.00" class="c-papier s-filet-1" fill="#F7F9FA" stroke="#00393A38" stroke-width="1"/>
  <rect x="152.00" y="32.00" width="56.00" height="20.00" class="c-papier s-filet-1" fill="#F7F9FA" stroke="#00393A38" stroke-width="1"/>
  <path d="M 56.00 42.00 L 152.00 42.00" fill="none" class="s-encre" stroke="#00393A" stroke-width="1.2"/>
  <path d="M 96.00 42.00 L 90.00 39.00 L 90.00 45.00 Z" class="c-encre" fill="#00393A"/>
  <rect x="56.00" y="47.00" width="96.00" height="8.00" class="c-encre" fill="#00393A"/>
  <path d="M 208.00 42.00 L 286.00 42.00" fill="none" class="s-encre" stroke="#00393A" stroke-width="1.2"/>
  <path d="M 292.00 42.00 L 286.00 39.00 L 286.00 45.00 Z" class="c-encre" fill="#00393A"/>
  <rect x="208.00" y="47.00" width="74.00" height="8.00" class="c-encre" fill="#00393A"/>
  <path d="M 180.00 65.00 L 180.00 56.00" fill="none" class="s-encre" stroke="#00393A" stroke-width="1.6"/>
  <path d="M 180.00 52.00 L 177.50 57.00 L 182.50 57.00 Z" class="c-encre" fill="#00393A"/>
  <circle cx="180.00" cy="65.00" r="4.00" class="c-papier s-encre" fill="#F7F9FA" stroke="#00393A" stroke-width="1.2"/>
  <rect x="14.00" y="75.00" width="42.00" height="20.00" class="c-papier s-filet-1" fill="#F7F9FA" stroke="#00393A38" stroke-width="1"/>
  <rect x="152.00" y="75.00" width="56.00" height="20.00" class="c-papier s-filet-1" fill="#F7F9FA" stroke="#00393A38" stroke-width="1"/>
  <path d="M 56.00 85.00 L 152.00 85.00" fill="none" class="s-encre" stroke="#00393A" stroke-width="1.2"/>
  <path d="M 96.00 85.00 L 90.00 82.00 L 90.00 88.00 Z" class="c-encre" fill="#00393A"/>
  <rect x="56.00" y="90.00" width="96.00" height="8.00" class="c-encre" fill="#00393A"/>
  <path d="M 208.00 85.00 L 286.00 85.00" fill="none" class="s-encre" stroke="#00393A" stroke-width="1.2"/>
  <path d="M 292.00 85.00 L 286.00 82.00 L 286.00 88.00 Z" class="c-encre" fill="#00393A"/>
  <rect x="208.00" y="90.00" width="74.00" height="8.00" class="c-encre" fill="#00393A"/>
  <text x="60.00" y="80.00" class="t-mono c-encre" fill="#00393A" font-family='"IBM Plex Mono", ui-monospace, monospace' font-size="9" font-weight="500" letter-spacing="1.26">1 020 m³/h</text>
  <path d="M 104.00 108.00 L 180.00 108.00" fill="none" class="s-encre" stroke="#00393A" stroke-width="1.6"/>
  <path d="M 180.00 108.00 L 180.00 99.00" fill="none" class="s-encre" stroke="#00393A" stroke-width="1.6"/>
  <path d="M 180.00 95.00 L 177.50 100.00 L 182.50 100.00 Z" class="c-encre" fill="#00393A"/>
  <circle cx="104.00" cy="108.00" r="4.00" class="c-papier s-encre" fill="#F7F9FA" stroke="#00393A" stroke-width="1.2"/>
  <rect x="14.00" y="118.00" width="42.00" height="42.00" class="c-papier s-filet-1" fill="#F7F9FA" stroke="#00393A38" stroke-width="1"/>
  <rect x="152.00" y="118.00" width="56.00" height="42.00" class="c-papier s-filet-1" fill="#F7F9FA" stroke="#00393A38" stroke-width="1"/>
  <path d="M 56.00 128.00 L 152.00 128.00" fill="none" class="s-encre" stroke="#00393A" stroke-width="1.2"/>
  <path d="M 96.00 128.00 L 90.00 125.00 L 90.00 131.00 Z" class="c-encre" fill="#00393A"/>
  <rect x="56.00" y="133.00" width="96.00" height="8.00" class="c-encre" fill="#00393A"/>
  <path d="M 208.00 128.00 L 286.00 128.00" fill="none" class="s-encre" stroke="#00393A" stroke-width="1.2"/>
  <path d="M 292.00 128.00 L 286.00 125.00 L 286.00 131.00 Z" class="c-encre" fill="#00393A"/>
  <path d="M 286.00 150.00 L 208.00 150.00" fill="none" class="s-encre" stroke="#00393A" stroke-width="1.2"/>
  <path d="M 214.00 150.00 L 220.00 147.00 L 220.00 153.00 Z" class="c-encre" fill="#00393A"/>
  <path d="M 152.00 150.00 L 56.00 150.00" fill="none" class="s-encre" stroke="#00393A" stroke-width="1.2"/>
  <path d="M 62.00 150.00 L 68.00 147.00 L 68.00 153.00 Z" class="c-encre" fill="#00393A"/>
  <rect x="56.00" y="155.00" width="96.00" height="7.20" class="c-encre" fill="#00393A"/>
  <text x="60.00" y="123.00" class="t-mono c-encre" fill="#00393A" font-family='"IBM Plex Mono", ui-monospace, monospace' font-size="9" font-weight="500" letter-spacing="1.26">540 m³/h</text>
  <path d="M 30.00 173.00 L 180.00 173.00" fill="none" class="s-encre" stroke="#00393A" stroke-width="1.6"/>
  <path d="M 180.00 173.00 L 180.00 164.00" fill="none" class="s-encre" stroke="#00393A" stroke-width="1.6"/>
  <path d="M 180.00 160.00 L 177.50 165.00 L 182.50 165.00 Z" class="c-encre" fill="#00393A"/>
  <circle cx="30.00" cy="173.00" r="4.00" class="c-papier s-encre" fill="#F7F9FA" stroke="#00393A" stroke-width="1.2"/>
</svg>
